<?xml version="1.0" encoding="UTF-8"?>
<svg id="Livello_2" data-name="Livello 2" xmlns="http://www.w3.org/2000/svg" viewBox="0 0 479.39 168.86">
  <defs>
    <style>
      .cls-1 {
        fill: #1d1d1b;
        stroke-width: 0px;
      }
    </style>
  </defs>
  <g id="Livello_1-2" data-name="Livello 1">
    <g>
      <g>
        <path class="cls-1" d="M0,106.48c0-5.29.92-9.75,2.77-13.36,1.85-3.61,4.31-6.51,7.37-8.7,3.07-2.18,6.64-3.78,10.71-4.79s8.34-1.51,12.79-1.51c3.61,0,7.12.59,10.52,1.76,3.4,1.18,6.45,2.82,9.14,4.91,2.69,2.1,4.83,4.66,6.43,7.69,1.6,3.02,2.39,6.47,2.39,10.33,0,3.36-.63,6.11-1.89,8.25-1.26,2.14-2.98,3.83-5.17,5.04-2.18,1.22-4.6,2.08-7.25,2.58s-5.36.76-8.13.76-5.44-.13-8.25-.38-5.4-.84-7.75-1.76c-2.35-.92-4.28-2.31-5.8-4.16-1.51-1.84-2.27-4.45-2.27-7.81,1.76,0,3.47.36,5.1,1.07,1.64.71,3.3,1.47,4.98,2.27,1.68.8,3.36,1.53,5.04,2.21,1.6.76,3.32,1.13,5.17,1.13,1.34,0,3.13-.13,5.36-.38s4.33-.74,6.3-1.45c1.97-.71,3.68-1.7,5.1-2.96,1.43-1.26,2.14-2.85,2.14-4.79,0-2.85-.63-5.34-1.89-7.44-1.26-2.1-2.9-3.84-4.91-5.23-2.02-1.39-4.28-2.46-6.81-3.21-2.52-.76-5.04-1.13-7.56-1.13-.34,0-1.16.08-2.46.25-1.3.17-2.79.44-4.47.82s-3.44.84-5.29,1.39c-1.85.55-3.55,1.22-5.1,2.02-1.55.8-2.84,1.7-3.84,2.71s-1.51,2.14-1.51,3.4v1.51c.08.93.19,2.16.32,3.72.13,1.56.23,3.11.32,4.66.08,1.56.21,2.92.38,4.1.17,1.18.25,1.85.25,2.02.17,1.34.46,3.42.88,6.24.42,2.82.88,5.97,1.39,9.45.5,3.49,1.07,7.16,1.7,11.03.63,3.86,1.24,7.54,1.83,11.03s1.11,6.62,1.58,9.39c.46,2.77.82,4.79,1.07,6.05,0,.17.02.32.06.44s.06.27.06.44l-.13.25v.25c-.17.25-.55.67-1.13,1.26-.67.5-1.09.84-1.26,1.01h-.76c-.84,0-1.72-.78-2.65-2.33s-1.87-3.65-2.84-6.3-1.93-5.69-2.9-9.14-1.91-7.02-2.84-10.71c-.92-3.7-1.76-7.35-2.52-10.96s-1.43-6.97-2.02-10.08c-.59-3.1-1.03-5.8-1.32-8.07-.29-2.27-.44-3.86-.44-4.79Z"/>
        <path class="cls-1" d="M67.17,101.69c.08-1.43.5-3.07,1.26-4.91.76-1.84,1.93-3.65,3.53-5.42s3.61-3.34,6.05-4.73,5.31-2.37,8.63-2.96c3.32-.58,7.1-.63,11.34-.13s8.97,1.76,14.18,3.78v-1.26l-.13-1.13c0-2.18-.63-4.41-1.89-6.68s-2.88-4.3-4.85-6.11c-1.97-1.81-4.1-3.28-6.36-4.41s-4.45-1.7-6.55-1.7c-.84,0-1.58.13-2.21.38s-1.24.57-1.83.95-1.16.71-1.7,1.01c-.55.3-1.2.44-1.95.44-.17,0-.25-.04-.25-.13-.08-.08-.17-.17-.25-.25-.17-.17-.4-.38-.69-.63s-.44-.42-.44-.5c0-1.51.27-2.81.82-3.91.55-1.09,1.3-1.97,2.27-2.65.97-.67,2.06-1.2,3.28-1.58s2.5-.57,3.84-.57c3.36.34,6.57,1.37,9.64,3.09,3.07,1.72,5.88,3.89,8.44,6.49,2.56,2.6,4.81,5.61,6.74,9.01s3.55,6.93,4.85,10.59,2.16,7.33,2.58,11.03c.5,3.86.55,7.48.13,10.84-.08,0-.34-.02-.76-.06-.42-.04-.88-.08-1.39-.13-.5-.04-.92-.11-1.26-.19l-.63-.13c-1.76-3.95-3.74-7.14-5.92-9.58-2.18-2.44-4.35-4.35-6.49-5.73-2.14-1.39-4.14-2.35-5.99-2.9-1.85-.55-3.36-.95-4.54-1.2-1.26,0-2.75.08-4.47.25-1.72.17-3.51.46-5.36.88-1.85.42-3.72.99-5.61,1.7-1.89.71-3.57,1.58-5.04,2.58s-2.65,2.21-3.53,3.59c-.88,1.39-1.32,3.01-1.32,4.85,0,2.02.8,3.72,2.39,5.1,1.6,1.39,3.53,2.52,5.8,3.4s4.58,1.5,6.93,1.83c2.35.34,4.24.5,5.67.5,2.35,0,4.66-.13,6.93-.38s4.52-.55,6.74-.88c2.23-.33,4.43-.63,6.62-.88s4.37-.38,6.55-.38h.88c.42,0,.86.02,1.32.06.46.05.88.06,1.26.06h.82c.67.25,1.05.63,1.13,1.13s.13,1.01.13,1.51-.53,1.05-1.58,1.64c-1.05.59-2.42,1.18-4.1,1.76-1.68.59-3.55,1.2-5.61,1.83s-4.03,1.16-5.92,1.58c-1.89.42-3.65.78-5.29,1.07-1.64.3-2.79.44-3.47.44-3.53,0-7.27-.29-11.22-.88-3.95-.58-7.56-1.66-10.84-3.21-3.28-1.55-5.99-3.72-8.13-6.49-2.14-2.77-3.21-6.34-3.21-10.71Z"/>
        <path class="cls-1" d="M132.2,107.74c.67-.5,1.28-.82,1.83-.95s1.16-.19,1.83-.19c.76,0,1.51.19,2.27.57s1.45.84,2.08,1.39c.63.55,1.28,1.07,1.95,1.58s1.39.93,2.14,1.26c2.18.93,3.93,1.68,5.23,2.27,1.3.59,2.5,1.05,3.59,1.39,1.09.34,2.35.55,3.78.63,1.43.08,3.28.13,5.55.13,1.76,0,3.91.02,6.43.06,2.52.05,4.91-.17,7.18-.63,2.27-.46,4.2-1.3,5.8-2.52,1.6-1.21,2.39-3.09,2.39-5.61.08-2.44-.57-4.35-1.95-5.73s-3.26-2.46-5.61-3.21c-2.35-.76-5-1.28-7.94-1.58-2.94-.29-5.97-.61-9.07-.95-3.11-.33-6.15-.82-9.14-1.45s-5.65-1.62-8-2.96c-2.35-1.34-4.24-3.19-5.67-5.55-1.43-2.35-2.18-5.37-2.27-9.07.5-2.69,1.83-4.93,3.97-6.74,2.14-1.81,4.7-3.19,7.69-4.16,2.98-.96,6.15-1.47,9.51-1.51,3.36-.04,6.45.38,9.26,1.26s5.17,2.29,7.06,4.22c1.89,1.94,2.88,4.33,2.96,7.18.17,1.68.04,3.07-.38,4.16-.42,1.09-.99,1.91-1.7,2.46-.71.55-1.45.8-2.21.76-.76-.04-1.34-.33-1.76-.88-.42-.55-.61-1.34-.57-2.39.04-1.05.53-2.37,1.45-3.97-.34-1.59-1.3-2.85-2.9-3.78-1.6-.92-3.44-1.58-5.55-1.95s-4.35-.46-6.74-.25c-2.39.21-4.58.65-6.55,1.32-1.97.68-3.57,1.56-4.79,2.65-1.22,1.09-1.74,2.35-1.58,3.78,0,2.52.74,4.47,2.21,5.86,1.47,1.39,3.38,2.46,5.73,3.21s5.06,1.31,8.13,1.64c3.07.34,6.22.65,9.45.95,3.23.3,6.36.71,9.39,1.26,3.02.55,5.76,1.45,8.19,2.71s4.37,2.96,5.8,5.1c1.43,2.14,2.14,4.94,2.14,8.38,0,2.6-.67,4.85-2.02,6.74s-3.05,3.47-5.1,4.73-4.31,2.19-6.74,2.77c-2.44.59-4.75.88-6.93.88s-4.52-.02-6.99-.06c-2.48-.04-5-.19-7.56-.44s-5.15-.65-7.75-1.2c-2.6-.55-5.02-1.39-7.25-2.52-2.23-1.13-4.22-2.58-5.99-4.35-1.76-1.76-3.19-3.99-4.28-6.68Z"/>
        <path class="cls-1" d="M198.61,107.74c.67-.5,1.28-.82,1.83-.95s1.16-.19,1.83-.19c.76,0,1.51.19,2.27.57s1.45.84,2.08,1.39c.63.55,1.28,1.07,1.95,1.58s1.39.93,2.14,1.26c2.18.93,3.93,1.68,5.23,2.27,1.3.59,2.5,1.05,3.59,1.39,1.09.34,2.35.55,3.78.63,1.43.08,3.28.13,5.55.13,1.76,0,3.91.02,6.43.06,2.52.05,4.91-.17,7.18-.63,2.27-.46,4.2-1.3,5.8-2.52,1.6-1.21,2.39-3.09,2.39-5.61.08-2.44-.57-4.35-1.95-5.73-1.39-1.39-3.26-2.46-5.61-3.21-2.35-.76-5-1.28-7.94-1.58-2.94-.29-5.97-.61-9.07-.95-3.11-.33-6.15-.82-9.14-1.45s-5.65-1.62-8-2.96c-2.35-1.34-4.24-3.19-5.67-5.55-1.43-2.35-2.18-5.37-2.27-9.07.5-2.69,1.83-4.93,3.97-6.74,2.14-1.81,4.7-3.19,7.69-4.16,2.98-.96,6.15-1.47,9.51-1.51,3.36-.04,6.45.38,9.26,1.26s5.17,2.29,7.06,4.22c1.89,1.94,2.88,4.33,2.96,7.18.17,1.68.04,3.07-.38,4.16-.42,1.09-.99,1.91-1.7,2.46-.71.55-1.45.8-2.21.76-.76-.04-1.34-.33-1.76-.88-.42-.55-.61-1.34-.57-2.39.04-1.05.53-2.37,1.45-3.97-.34-1.59-1.3-2.85-2.9-3.78-1.6-.92-3.44-1.58-5.55-1.95s-4.35-.46-6.74-.25c-2.39.21-4.58.65-6.55,1.32-1.97.68-3.57,1.56-4.79,2.65-1.22,1.09-1.74,2.35-1.58,3.78,0,2.52.74,4.47,2.21,5.86s3.38,2.46,5.73,3.21,5.06,1.31,8.13,1.64c3.07.34,6.22.65,9.45.95,3.23.3,6.36.71,9.39,1.26,3.02.55,5.76,1.45,8.19,2.71,2.44,1.26,4.37,2.96,5.8,5.1,1.43,2.14,2.14,4.94,2.14,8.38,0,2.6-.67,4.85-2.02,6.74s-3.05,3.47-5.1,4.73c-2.06,1.26-4.31,2.19-6.74,2.77-2.44.59-4.75.88-6.93.88s-4.52-.02-6.99-.06c-2.48-.04-5-.19-7.56-.44s-5.15-.65-7.75-1.2c-2.6-.55-5.02-1.39-7.25-2.52s-4.22-2.58-5.99-4.35c-1.76-1.76-3.19-3.99-4.28-6.68Z"/>
        <path class="cls-1" d="M265.28,106.48c0-5.29.92-9.75,2.77-13.36,1.85-3.61,4.31-6.51,7.37-8.7,3.07-2.18,6.64-3.78,10.71-4.79s8.34-1.51,12.79-1.51c3.61,0,7.12.59,10.52,1.76,3.4,1.18,6.45,2.82,9.14,4.91,2.69,2.1,4.83,4.66,6.43,7.69,1.6,3.02,2.39,6.47,2.39,10.33,0,3.36-.63,6.11-1.89,8.25-1.26,2.14-2.98,3.83-5.17,5.04-2.18,1.22-4.6,2.08-7.25,2.58s-5.36.76-8.13.76-5.44-.13-8.25-.38-5.4-.84-7.75-1.76c-2.35-.92-4.28-2.31-5.8-4.16-1.51-1.84-2.27-4.45-2.27-7.81,1.76,0,3.47.36,5.1,1.07,1.64.71,3.3,1.47,4.98,2.27,1.68.8,3.36,1.53,5.04,2.21,1.6.76,3.32,1.13,5.17,1.13,1.34,0,3.13-.13,5.36-.38s4.33-.74,6.3-1.45c1.97-.71,3.68-1.7,5.1-2.96s2.14-2.85,2.14-4.79c0-2.85-.63-5.34-1.89-7.44-1.26-2.1-2.9-3.84-4.91-5.23s-4.28-2.46-6.81-3.21c-2.52-.76-5.04-1.13-7.56-1.13-.34,0-1.16.08-2.46.25-1.3.17-2.79.44-4.47.82s-3.44.84-5.29,1.39c-1.85.55-3.55,1.22-5.1,2.02-1.55.8-2.84,1.7-3.84,2.71s-1.51,2.14-1.51,3.4v1.51c.08.93.19,2.16.32,3.72.13,1.56.23,3.11.32,4.66.08,1.56.21,2.92.38,4.1.17,1.18.25,1.85.25,2.02.17,1.34.46,3.42.88,6.24.42,2.82.88,5.97,1.39,9.45s1.07,7.16,1.7,11.03c.63,3.86,1.24,7.54,1.83,11.03s1.11,6.62,1.58,9.39c.46,2.77.82,4.79,1.07,6.05,0,.17.02.32.06.44s.06.27.06.44l-.13.25v.25c-.17.25-.55.67-1.13,1.26-.67.5-1.09.84-1.26,1.01h-.76c-.84,0-1.72-.78-2.65-2.33s-1.87-3.65-2.84-6.3-1.93-5.69-2.9-9.14c-.97-3.44-1.91-7.02-2.84-10.71-.92-3.7-1.76-7.35-2.52-10.96s-1.43-6.97-2.02-10.08c-.59-3.1-1.03-5.8-1.32-8.07s-.44-3.86-.44-4.79Z"/>
        <path class="cls-1" d="M332.45,97.28c0-4.62,1.01-8.65,3.02-12.1,2.02-3.44,4.66-6.34,7.94-8.7,3.28-2.35,6.95-4.1,11.03-5.23s8.17-1.7,12.29-1.7c2.18,0,4.22.4,6.11,1.2,1.89.8,3.7,1.89,5.42,3.28s3.26,2.98,4.6,4.79c1.34,1.81,2.5,3.68,3.47,5.61.97,1.94,1.7,3.89,2.21,5.86.5,1.97.76,3.89.76,5.73,0,4.28-.84,8.11-2.52,11.47-1.68,3.36-3.95,6.2-6.81,8.51-2.86,2.31-6.09,4.08-9.7,5.29-3.61,1.22-7.31,1.83-11.09,1.83s-7.41-.61-10.65-1.83c-3.23-1.21-6.05-2.92-8.44-5.1-2.39-2.18-4.26-4.89-5.61-8.13-1.34-3.23-2.02-6.82-2.02-10.78ZM338.63,96.27c0,2.6.48,5.1,1.45,7.5s2.31,4.47,4.03,6.24c1.72,1.76,3.76,3.17,6.11,4.22,2.35,1.05,4.87,1.58,7.56,1.58,1.43.17,3.17-.06,5.23-.69s4.12-1.55,6.18-2.77c2.06-1.21,4.03-2.69,5.92-4.41,1.89-1.72,3.47-3.61,4.73-5.67,1.26-2.06,2.04-4.2,2.33-6.43.29-2.22-.08-4.45-1.13-6.68-1.05-2.22-2.96-4.36-5.73-6.43-2.77-2.06-6.6-3.97-11.47-5.73-2.77,0-5.65.4-8.63,1.2-2.98.8-5.69,2-8.13,3.59-2.44,1.6-4.45,3.61-6.05,6.05-1.6,2.44-2.39,5.25-2.39,8.44Z"/>
        <path class="cls-1" d="M406.8,122.99c-1.85-3.36-3.44-7.01-4.79-10.96-1.34-3.95-2.48-7.94-3.4-11.97-.92-4.03-1.66-7.96-2.21-11.78-.55-3.82-.9-7.29-1.07-10.4,0-.58-.04-1.24-.13-1.95-.08-.71-.11-1.45-.06-2.21s.17-1.47.38-2.14c.21-.67.57-1.26,1.07-1.76h.25c.08,0,.13-.02.13-.06,0-.04.04-.06.13-.06s.13.02.13.06c0,.05.08.06.25.06h.25c.17.08.59.25,1.26.5s1.09.46,1.26.63c1.51-.5,3.07-1.11,4.66-1.83,1.6-.71,3.21-1.39,4.85-2.02s3.3-1.15,4.98-1.58c1.68-.42,3.32-.63,4.91-.63,1.18,0,2.21.05,3.09.13.88.08,1.76.24,2.65.44.88.21,1.83.46,2.84.76,1.01.3,2.18.65,3.53,1.07.67.5,1.28.99,1.83,1.45.55.46,1.05.99,1.51,1.58.46.59.82,1.31,1.07,2.14.25.84.38,1.94.38,3.28-1.34.17-2.92.06-4.73-.32s-3.7-.86-5.67-1.45c-1.97-.58-4.01-1.09-6.11-1.51-2.1-.42-4.12-.58-6.05-.5-1.93.08-3.74.63-5.42,1.64-1.76.84-3.32,2.35-4.66,4.54-.59,2.44-.84,4.84-.76,7.18.08,2.35.38,4.65.88,6.87.5,2.23,1.16,4.46,1.95,6.68.8,2.23,1.55,4.46,2.27,6.68.71,2.23,1.37,4.43,1.95,6.62.59,2.19.97,4.41,1.13,6.68,0,.84-.46,1.75-1.39,2.71-.92.97-1.97,1.45-3.15,1.45Z"/>
        <path class="cls-1" d="M454.82,79.63h-3.53c-1.68,0-3.42-.14-5.23-.44-1.81-.29-3.44-.77-4.91-1.45-1.47-.67-2.21-1.64-2.21-2.9,0-.33.06-.82.19-1.45s.53-.95,1.2-.95l12.98-1.13c.34-3.1.59-5.65.76-7.62.17-1.97.21-3.82.13-5.55-.08-1.72-.19-3.53-.32-5.42-.13-1.89-.23-4.35-.32-7.37,0-.58.13-1.05.38-1.39.25-.33.57-.58.95-.76.38-.17.8-.29,1.26-.38.46-.08.82-.13,1.07-.13.5,0,1.03.17,1.58.5.55.34,1.03.76,1.45,1.26s.76,1.03,1.01,1.58c.25.55.38,1.07.38,1.58l1.01,23.57,10.84.5c1.43-.17,2.75.11,3.97.82,1.22.71,1.87,2.04,1.95,3.97-1.01,1.09-2.23,1.75-3.65,1.95-1.43.21-2.92.3-4.47.25-1.55-.04-3.09-.04-4.6,0-1.51.05-2.86.44-4.03,1.2,0,.5.04,1.89.13,4.16.08,2.27.17,4.96.25,8.07.08,3.11.19,6.43.32,9.96s.23,6.79.32,9.77c.08,2.98.15,5.53.19,7.62.04,2.1.06,3.28.06,3.53-1.93,1.18-3.49,1.07-4.66-.32s-2.12-3.44-2.84-6.18c-.71-2.73-1.22-5.92-1.51-9.58-.29-3.65-.46-7.26-.5-10.84-.04-3.57-.02-6.87.06-9.89.08-3.02.21-5.21.38-6.55Z"/>
      </g>
      <g>
        <path class="cls-1" d="M126.91,47.72c-.09-.05-.43-.22-1.03-.53-.6-.31-1.22-.69-1.87-1.13-.64-.45-1.21-.91-1.7-1.4s-.69-.95-.6-1.4c.18-.49.45-.83.83-1.03.37-.2.75-.39,1.13-.57s.7-.42.97-.73c.26-.31.37-.82.33-1.53-.76-5.28-1.44-9.95-2.06-14.01-.62-4.06-1.28-7.46-1.97-10.22-.68-2.75-1.44-4.84-2.26-6.25-.82-1.42-1.83-2.13-3.03-2.13h-.33c-.36.22-.83.45-1.43.7-.6.24-1.24.49-1.93.73-.69.25-1.37.47-2.03.67-.67.2-1.2.37-1.6.5-.09,0-.2.02-.33.06h-.26v-2c0-.44.4-.87,1.2-1.26s1.81-.79,3.03-1.16c1.22-.38,2.56-.73,4.02-1.07,1.47-.33,2.87-.61,4.23-.83,1.35-.22,2.56-.4,3.63-.53,1.06-.13,1.77-.2,2.13-.2.8,0,1.75.09,2.86.27,1.11.18,2.27.44,3.49.8,1.22.35,2.42.81,3.6,1.36,1.18.56,2.23,1.19,3.16,1.9.93.71,1.69,1.51,2.26,2.39.58.84.87,1.8.87,2.86,0,1.16-.23,2.22-.7,3.2s-1,1.85-1.6,2.63c-.6.78-1.13,1.46-1.6,2.06-.47.6-.7,1.16-.7,1.7,0,.09.43.34,1.3.76s1.97,1.01,3.33,1.76c1.35.75,2.81,1.68,4.36,2.79,1.55,1.11,3,2.34,4.36,3.69,1.35,1.36,2.47,2.82,3.36,4.39.89,1.58,1.33,3.25,1.33,5.02,0,1.86-.41,3.42-1.23,4.66-.82,1.24-1.87,2.23-3.16,2.96-1.29.73-2.72,1.26-4.29,1.6-1.58.33-3.1.5-4.56.5s-2.76-.03-3.89-.1c-1.13-.07-2.26-.18-3.39-.33s-2.34-.36-3.63-.6c-1.29-.24-2.81-.56-4.59-.96ZM128.84,39.79c-.58.89-.76,1.66-.53,2.33.22.66.71,1.24,1.47,1.73.75.49,1.66.87,2.73,1.16,1.07.29,2.13.51,3.19.66,1.07.16,2.04.24,2.93.24s1.55-.02,2-.07c1.33,0,2.64-.05,3.92-.17,1.29-.11,2.42-.4,3.39-.87.98-.46,1.75-1.14,2.33-2.03.58-.89.87-2.1.87-3.66,0-2.17-.57-3.98-1.7-5.42-1.13-1.44-2.55-2.67-4.26-3.69-1.71-1.02-3.56-1.87-5.56-2.56-2-.69-3.86-1.33-5.59-1.93-1.73-.6-3.15-1.23-4.26-1.89-1.11-.67-1.67-1.47-1.67-2.4,0-.49.26-.87.77-1.16.51-.29,1.15-.54,1.93-.76s1.61-.45,2.5-.7,1.73-.6,2.53-1.07,1.45-1.05,1.96-1.76c.51-.71.77-1.66.77-2.86,0-.97-.27-1.84-.8-2.6-.53-.75-1.21-1.39-2.03-1.93-.82-.53-1.71-.93-2.66-1.2-.96-.27-1.85-.4-2.7-.4-1.24,0-2.53.13-3.86.4-1.33.26-2.48.8-3.46,1.6.53,2.26,1.13,4.75,1.8,7.45.67,2.71,1.3,5.45,1.9,8.22.6,2.77,1.1,5.49,1.5,8.15.4,2.66.6,5.06.6,7.19Z"/>
        <path class="cls-1" d="M158.19,31.81c0-2.31.34-4.51,1.03-6.62.68-2.1,1.68-3.96,2.99-5.56,1.31-1.6,2.91-2.87,4.79-3.83,1.89-.95,4.07-1.43,6.55-1.43,1.47.18,2.74.58,3.83,1.2s1.97,1.39,2.66,2.29c.69.91,1.19,1.97,1.5,3.16.26,1.16.4,2.39.4,3.73,0,1.6-.47,3.04-1.4,4.33-.93,1.29-2.11,2.36-3.53,3.23s-2.95,1.53-4.59,2c-1.64.47-3.17.7-4.59.7h-1.63c-.55,0-1.05-.09-1.5-.27-.45-.18-.8-.44-1.07-.8-.26-.35-.4-.89-.4-1.6,0-.22.03-.41.1-.57.07-.15.25-.26.56-.33s.78-.08,1.4-.03c.62.09,1.47.22,2.53.4.62,0,1.52-.21,2.7-.63,1.17-.42,2.37-.97,3.59-1.63,1.22-.67,2.27-1.43,3.16-2.3.89-.87,1.33-1.72,1.33-2.56,0-.89-.14-1.76-.43-2.63-.29-.86-.72-1.63-1.3-2.29-.58-.66-1.26-1.2-2.03-1.6-.77-.4-1.65-.55-2.63-.47-1.55.13-2.96.55-4.23,1.26s-2.34,1.63-3.23,2.76c-.89,1.13-1.58,2.39-2.06,3.76-.49,1.38-.73,2.82-.73,4.33,0,1.16.02,2.31.07,3.46.04,1.16.21,2.29.5,3.39.29,1.11.75,2.17,1.39,3.19s1.58,1.92,2.8,2.7c1.22.78,2.76,1.42,4.63,1.93,1.86.51,4.17.83,6.92.97l11.91-.8c-.71.97-1.61,1.77-2.7,2.39s-2.24,1.12-3.46,1.5c-1.22.37-2.43.66-3.63.83s-2.33.26-3.39.26c-2.57,0-4.99-.42-7.25-1.26-2.26-.84-4.26-2.03-5.99-3.56-1.73-1.53-3.1-3.39-4.1-5.59-1-2.2-1.5-4.67-1.5-7.42Z"/>
        <path class="cls-1" d="M213.89,48.45c.09-1.16.18-2.35.27-3.6.09-1.24.16-2.48.23-3.73.07-1.24.11-2.46.13-3.66.02-1.2.03-2.29.03-3.26,0-1.42-.2-2.77-.6-4.06-.4-1.29-.97-2.4-1.73-3.36-.76-.95-1.7-1.71-2.83-2.26s-2.47-.83-4.03-.83c-.62,0-1.15.04-1.6.13-.45.09-.89.24-1.33.43-.44.2-.93.46-1.46.76-.53.36-1.16.78-1.87,1.26,0,.09,0,.26-.03.5-.02.24-.03.39-.03.43,0,.98.1,2.28.3,3.89.2,1.62.41,3.31.63,5.06s.45,3.45.67,5.09c.22,1.64.33,2.97.33,3.99v.53c0,.27-.01.55-.03.87-.03.31-.03.6-.03.87v.6c-.26.62-.59,1.01-.97,1.16s-.83.23-1.36.23c-.53.09-.93-.29-1.2-1.13-.26-.84-.47-2.06-.6-3.66-.13-1.6-.26-3.53-.37-5.79-.11-2.26-.27-4.75-.47-7.45-.2-2.71-.49-5.58-.87-8.62-.38-3.04-.92-6.16-1.63-9.35-.36-1.24-.63-2.3-.83-3.16-.2-.87-.39-1.64-.57-2.33s-.33-1.4-.47-2.13-.29-1.61-.47-2.63v-.26c0-.18.11-.34.33-.5.22-.16.48-.3.77-.43.29-.13.58-.23.87-.3.29-.07.52-.1.7-.1.84,2.22,1.52,4.09,2.03,5.62.51,1.53.92,2.85,1.23,3.96.31,1.11.53,2.04.67,2.8.13.75.24,1.49.33,2.19.09.71.16,1.45.2,2.2.05.76.13,1.66.27,2.73,2.31-1.42,4.4-2.2,6.29-2.33s3.56.15,5.02.83c1.46.69,2.74,1.74,3.83,3.16,1.08,1.42,1.98,3.02,2.69,4.79.71,1.78,1.26,3.66,1.63,5.66.38,2,.62,3.93.74,5.79.11,1.87.07,3.58-.13,5.16-.2,1.58-.5,2.84-.9,3.79s-.93,1.51-1.6,1.66-1.4-.26-2.2-1.23Z"/>
        <path class="cls-1" d="M222.01,9.91c0-.53.16-.87.47-1.03s.71-.24,1.2-.24c.31-.04.72.15,1.23.57.51.42.93.9,1.26,1.43.33.53.52,1.02.57,1.46.04.53-.29.84-1,.93h-.33c-.66,0-1.22-.04-1.66-.13-.45-.09-.79-.23-1.03-.43-.24-.2-.42-.5-.53-.9-.11-.4-.17-.95-.17-1.66ZM225.4,26.62v-1c0-.49.01-1,.03-1.53.02-.53.03-1.04.03-1.53v-1c-.18-1.38.22-2.06,1.2-2.06.44,0,.82.11,1.13.33s.6.55.87,1c-.13,2.31-.03,4.54.3,6.69.33,2.15.71,4.28,1.13,6.39.42,2.11.82,4.23,1.2,6.36s.57,4.35.57,6.65c0,.63-.19,1.24-.57,1.87s-.94.93-1.7.93c-.58,0-1.08-.5-1.5-1.5-.42-1-.79-2.26-1.1-3.79-.31-1.53-.58-3.23-.8-5.09-.22-1.86-.39-3.65-.5-5.36-.11-1.71-.19-3.24-.23-4.59-.05-1.35-.07-2.27-.07-2.76Z"/>
        <path class="cls-1" d="M235.05,23.69c0-.4.15-.66.43-.77.29-.11.61-.16.97-.16.26,0,.45.07.57.2.11.13.19.29.23.47.05.18.11.34.2.5.09.16.24.24.47.24.62,0,1.37-.24,2.26-.74.89-.49,1.85-1.02,2.89-1.6s2.16-1.11,3.33-1.6c1.18-.49,2.34-.73,3.5-.73,1.51,0,2.89.39,4.16,1.16s2.4,1.81,3.39,3.09c1,1.29,1.85,2.73,2.56,4.33.71,1.6,1.31,3.23,1.8,4.89.49,1.66.84,3.28,1.06,4.86s.34,2.94.34,4.09c0,.4-.03,1-.1,1.8s-.18,1.6-.33,2.39c-.16.8-.41,1.5-.77,2.1-.35.6-.8.9-1.33.9-.09,0-.25,0-.47-.03-.22-.02-.45-.06-.67-.13s-.41-.15-.56-.24c-.16-.09-.24-.22-.24-.4.4-3.42.4-6.62,0-9.62s-1.04-5.62-1.93-7.88c-.89-2.26-1.97-4.06-3.26-5.39-1.29-1.33-2.66-2-4.13-2-1.37,0-2.66.22-3.86.67-1.2.44-2.24,1.09-3.13,1.93-.89.84-1.59,1.87-2.1,3.06-.51,1.2-.76,2.51-.76,3.93s.13,2.83.4,4.22c.26,1.4.56,2.8.9,4.2.33,1.39.63,2.81.89,4.22.27,1.42.4,2.84.4,4.26-1.24,0-2.29-.51-3.13-1.53-.84-1.02-1.52-2.33-2.03-3.93-.51-1.6-.91-3.39-1.2-5.39-.29-2-.49-3.96-.6-5.89-.11-1.93-.17-3.75-.17-5.46v-4.02Z"/>
        <path class="cls-1" d="M265.73,34.54c0-1.64.21-3.37.63-5.19.42-1.82,1.09-3.5,2-5.06.91-1.55,2.06-2.83,3.46-3.83,1.39-1,3.11-1.5,5.15-1.5,1.07,0,2.13.16,3.2.47,1.06.31,2.16.75,3.29,1.33,1.13.58,2.31,1.25,3.53,2.03,1.22.78,2.52,1.63,3.89,2.56.18-1.78.11-3.6-.2-5.49-.31-1.89-.71-3.74-1.2-5.56-.49-1.82-.99-3.54-1.5-5.16-.51-1.62-.88-3.07-1.1-4.36-.22-1.29-.24-2.35-.07-3.2.18-.84.71-1.37,1.6-1.6,1.2.89,2.23,2.14,3.1,3.76.87,1.62,1.6,3.5,2.23,5.62.62,2.13,1.13,4.4,1.53,6.82.4,2.42.73,4.87,1,7.36.27,2.49.48,4.9.63,7.25.16,2.35.32,4.51.5,6.49.18,1.97.34,3.66.5,5.06.15,1.4.39,2.39.7,2.96,0,.71-.26,1.16-.76,1.33-.51.18-1.03.26-1.57.26-.44,0-.82-.16-1.13-.5-.31-.34-.55-.72-.73-1.17-.18-.44-.34-.94-.5-1.5s-.32-1.06-.5-1.53-.38-.86-.6-1.17c-.22-.31-.51-.47-.87-.47-.09,0-.21.01-.37.03-.16.03-.24.06-.24.1-.84,1.16-1.83,2.28-2.96,3.36-1.13,1.09-2.37,2.04-3.73,2.86-1.35.82-2.77,1.48-4.26,1.97-1.49.49-2.98.73-4.49.73-1.69,0-3.16-.55-4.43-1.66s-2.33-2.44-3.19-3.99c-.87-1.55-1.51-3.19-1.93-4.92-.42-1.73-.63-3.24-.63-4.52ZM269.86,35.74c.45,1.6.84,3,1.2,4.19.36,1.2.79,2.18,1.3,2.93.51.76,1.12,1.32,1.83,1.7s1.64.57,2.79.57c1.42,0,2.93-.41,4.53-1.23,1.6-.82,3.08-1.87,4.46-3.16,1.37-1.29,2.51-2.69,3.39-4.23.89-1.53,1.33-3,1.33-4.42v-1.6c-2.35-2.31-4.52-3.96-6.49-4.96-1.97-1-3.74-1.51-5.29-1.53-1.55-.02-2.91.32-4.06,1.03-1.15.71-2.1,1.64-2.86,2.8s-1.31,2.44-1.66,3.86-.51,2.77-.47,4.06Z"/>
        <path class="cls-1" d="M327.02,38.4c.04-.76.26-1.62.66-2.6s1.02-1.93,1.87-2.86c.84-.93,1.91-1.76,3.19-2.5,1.29-.74,2.81-1.26,4.56-1.57,1.75-.31,3.75-.33,5.99-.07,2.24.27,4.74.93,7.49,2v-.67l-.07-.6c0-1.16-.33-2.33-1-3.53-.66-1.2-1.52-2.27-2.56-3.23-1.04-.95-2.16-1.73-3.36-2.33-1.2-.6-2.35-.9-3.46-.9-.44,0-.83.07-1.16.2s-.66.3-.97.5c-.31.2-.61.38-.89.53-.29.16-.63.23-1.03.23-.09,0-.13-.02-.13-.07-.04-.04-.09-.09-.13-.13-.09-.09-.21-.2-.37-.33-.16-.13-.24-.22-.24-.26,0-.8.14-1.49.43-2.06s.69-1.04,1.2-1.4c.51-.35,1.09-.63,1.73-.83.64-.2,1.32-.3,2.03-.3,1.78.18,3.47.72,5.09,1.63,1.62.91,3.1,2.05,4.46,3.43,1.35,1.37,2.54,2.96,3.56,4.76,1.02,1.8,1.87,3.66,2.56,5.59.69,1.93,1.14,3.87,1.37,5.82.26,2.04.29,3.95.07,5.73-.05,0-.18-.01-.4-.03-.22-.02-.47-.05-.74-.07-.26-.02-.49-.05-.66-.1l-.33-.07c-.93-2.08-1.97-3.77-3.13-5.06-1.16-1.29-2.29-2.29-3.43-3.02-1.13-.74-2.18-1.24-3.16-1.53-.98-.29-1.78-.5-2.4-.63-.66,0-1.45.04-2.36.13-.91.09-1.85.25-2.83.47-.98.22-1.97.53-2.96.9-1,.38-1.89.83-2.66,1.37s-1.4,1.16-1.86,1.89c-.47.74-.7,1.59-.7,2.56,0,1.07.42,1.97,1.26,2.7.84.73,1.87,1.33,3.06,1.8s2.42.79,3.66.96c1.24.18,2.24.27,3,.27,1.24,0,2.46-.07,3.66-.2,1.2-.13,2.39-.29,3.56-.47,1.18-.18,2.34-.33,3.5-.47,1.15-.13,2.31-.2,3.46-.2h.46c.22,0,.46.01.7.03s.47.03.66.03h.43c.36.13.55.33.6.6.04.27.07.53.07.8s-.28.56-.83.87c-.56.31-1.28.62-2.16.93-.89.31-1.88.63-2.96.97-1.09.33-2.13.61-3.13.83-1,.22-1.93.41-2.79.57s-1.47.23-1.83.23c-1.86,0-3.84-.16-5.92-.47s-3.99-.87-5.72-1.7c-1.73-.82-3.16-1.96-4.29-3.43-1.13-1.46-1.7-3.35-1.7-5.65Z"/>
      </g>
    </g>
  </g>
</svg>