<?xml version="1.0" encoding="UTF-8"?>
<svg xmlns="http://www.w3.org/2000/svg" viewBox="0 0 783.36 587.52">
  <defs>
    <style>
      .cls-1 {
        fill: #fff2db;
      }

      .cls-1, .cls-2 {
        stroke-width: 0px;
      }

      .cls-2 {
        fill: #404040;
      }
    </style>
  </defs>
  <g id="Sfondo_Immagine" data-name="Sfondo Immagine">
    <rect class="cls-1" width="783.36" height="587.52"/>
  </g>
  <g id="Livello_4" data-name="Livello 4">
    <g>
      <path class="cls-2" d="M635.13,46.55c.67-.8-.27.23-1.16,1.14l1.16-1.14Z"/>
      <path class="cls-2" d="M633.97,47.69l-.82.8c.23-.21.52-.49.82-.8Z"/>
      <path class="cls-2" d="M626.34,55.23c1.7-1.79,3.84-3.8,4.86-4.97-1.8,1.71-4.5,4.45-4.86,4.97Z"/>
      <polygon class="cls-2" points="629.01 52.66 629.19 52.4 627.73 53.99 629.01 52.66"/>
      <polygon class="cls-2" points="630.14 51.6 629.91 51.81 627.56 54.24 630.14 51.6"/>
      <path class="cls-2" d="M620.42,61.1l1.74-1.76c1.69-1.58-1.01,1.16.13.1,2.18-2.18.63-.87,3.38-3.58-.27.16-4.37,4.37-4.01,3.85-2.32,2.27-.06.16-1.23,1.39Z"/>
      <path class="cls-2" d="M515.62,166.8c-.09.09-.17.16-.25.24.11-.09.21-.18.25-.24Z"/>
      <path class="cls-2" d="M486.85,195.68c-.4.39-.81.78-1.2,1.16.13-.11.28-.25.49-.44l.71-.72Z"/>
      <path class="cls-2" d="M533.51,148.59c.42-.4.81-.78,1.16-1.12-.23.2-.58.53-1.16,1.12Z"/>
      <path class="cls-2" d="M349.6,331.9c.06-.08.11-.14.13-.17-.01.01-.03.03-.05.05l-.29.34.22-.22Z"/>
      <path class="cls-2" d="M454.7,228.09c-.45.46-.9.91-1.29,1.31.76-.75,1.12-1.12,1.29-1.31Z"/>
      <path class="cls-2" d="M543.9,138.19c-.16.16-.3.3-.43.43.14-.13.33-.32.54-.53l-.09.07s0,0-.02.02Z"/>
      <path class="cls-2" d="M496.37,186.38c-.4.38-.75.73-1.06,1.03.36-.35.71-.7,1.06-1.03Z"/>
      <path class="cls-2" d="M593.59,87.74c-.5.49-.91.9-1.26,1.28.33-.3.73-.7,1.26-1.28Z"/>
      <path class="cls-2" d="M583.29,98.06s.04-.04.06-.06c-.07.05-.1.08-.06.06Z"/>
      <path class="cls-2" d="M576.69,104.64s.08-.08.11-.12c-.08.07-.12.11-.11.12Z"/>
      <path class="cls-2" d="M592.33,89.01c-.89.82-1.25.97-2.23,2.19l.23-.2c-.69.64-1.62,1.66-2.38,2.43.09-.07.19-.15.31-.25.39-.38.9-.89,1.69-1.67.96-.91,1.51-1.57,2.38-2.5Z"/>
      <path class="cls-2" d="M515.71,166.67c.12-.08.8-.78,0,0h0Z"/>
      <path class="cls-2" d="M524.5,157.7c-.29.29-.58.57-.88.87.28-.28.57-.55.88-.87Z"/>
      <path class="cls-2" d="M558.02,124.24c-.06.06-.11.1-.16.15-.04.06.09-.07.16-.15Z"/>
      <path class="cls-2" d="M522.82,159.37c.27-.27.54-.54.81-.8-.25.24-.51.5-.81.8Z"/>
      <path class="cls-2" d="M547.9,134.23s-.1.09-.14.13c.03-.03.08-.08.14-.13Z"/>
      <path class="cls-2" d="M211.54,469.21c.67-.69,1.09-1.05,1.74-1.68,1.35-1.51-2.95,2.94-.94.8-.63.63-1.12,1.14-1.58,1.62l.98-.83c1.22-1.28-.86.81-.19.09Z"/>
      <path class="cls-2" d="M341.08,340.12l.29-.28c-.23.16-.06-.03-1.18,1.06-.89.99.65-.4-.94,1.3.31-.32.79-.8,1.25-1.24-.72.63-.1-.08.58-.85Z"/>
      <path class="cls-2" d="M340.49,340.97s.03-.03.05-.04c.08-.06.16-.14.26-.22.24-.24.47-.46.66-.65-.19.17-.56.51-.97.91Z"/>
      <path class="cls-2" d="M233.93,446.89c.28-.27.53-.52.76-.74-.38.35-.6.57-.76.74Z"/>
      <path class="cls-2" d="M455.85,225.09c.32-.33.63-.66.88-.92-.49.5-.73.76-.88.92Z"/>
      <path class="cls-2" d="M357.06,324.28c.26-.25.52-.5.81-.79.17-.17.3-.31.5-.51l-1.31,1.29Z"/>
      <path class="cls-2" d="M304.73,378.01c.49-.65-.43.44-1.61,1.53l-1.01,1.1c.98-.95,1.85-1.86,2.62-2.62Z"/>
      <path class="cls-2" d="M210.69,470.02s0,0,0,.02c.03-.03.04-.05.08-.08l-.08.06Z"/>
      <path class="cls-2" d="M273.59,409.18c-.18.17-.35.33-.52.5.11-.1.27-.25.52-.5Z"/>
      <path class="cls-2" d="M346.77,334.76l4.02-4.01-1.19,1.15c-.52.6-2.32,2.25-2.82,2.86Z"/>
      <path class="cls-2" d="M321.88,360.95l.41-.31c3.88-4.1,8.61-8.52,11.64-11.85,5.04-4.68,3.03-3.35,7.64-7.64l-.18.12c14.68-14.62,30.32-30.08,43.93-43.86v.06c22.15-22.02,43.57-43.59,65.48-65.44,2.01-2.07.7-.92,2.42-2.72.77-.76,2.49-2.49,2.54-2.46-1.46,1.5-.58.71-1.07,1.23,2.46-2.46,5.69-5.59,7.82-7.84l-1.89,1.78c.83-.88,2.19-2.2,2.96-2.97-.3.35.89-.71.23-.03,4.49-4.77,3.67-3.55,7.52-7.51.66-.9,5.44-5.88,8.57-9.18l1.72-1.66c-2.25,2.24.13.05-2.66,2.82,2.36-2.29,4.46-4.49,6.68-6.67-.46.4-.39.25.48-.65,1.37-1.33,1.54-1.39,3.09-2.93l-1.48,1.56c1.07-.98,1.89-1.92,2.84-2.88.36-.26,2.67-2.55,2.32-2.09,2.01-2.14,2.78-2.84,4.97-5.12-2.38,2.27.53-.66.23-.44l-2.6,2.64c3.72-3.66-1.19,1.21-.83,1.02-1.77,1.7,2.24-2.52-.65.4,3.43-3.52,4.2-4.21,7.68-7.84-2.13,2.16.35-.46-.82.66,2.72-2.72.71-.65,1.6-1.43,1.48-1.48,2.07-1.98,3.37-3.4,2.43-2.38-.3.42.95-.76-.83.95-6.75,6.61-5.91,6.14-1.25,1.25-2.71,2.85-4.52,4.66,1.6-1.55,3.91-3.74,5.82-5.73v-.2c1.47-1.48,1.7-1.86,2.78-2.91-.54.6.53-.38,1.71-1.58-.35.32-.83.8-.71.65,2.2-2.21,2.43-2.59,5.03-5.23-2.19,2.14-2.67,2.55-4.74,4.53.47-.62,1.42-1.44,2.6-2.64-.17.19-.42.44-.05.1l1.23-1.3c2.73-2.67-.23.44,2.03-1.75,1.6-1.48,2.07-2.14,3.29-3.29-.08.07-.17.14-.25.21.26-.26.45-.45.59-.58-.01,0-.02.02-.02.01,1.42-1.44,2.96-2.97,3.31-3.43.18-.13,1.25-1.26,1.7-1.74.78-.82,2.62-2.8,3.9-3.9-.03.03-.06.06-.09.09,1.79-1.77,3.21-3.14,2.86-2.72l2.9-2.86-.24.38c2.6-2.64,2.3-2.42,4.02-4.29,1.92-1.84,5.17-5.15,6.39-6.42.21-.2.53-.52,1.04-1.05l-1.12,1.07c2.05-2.04,1.76-1.83,3.11-3.18-.29.27-.33.31.43-.43.23-.23.48-.47.78-.77-.06.08-.36.38-.67.68l.27-.22c1.71-1.56,2.47-2.55,4.24-4.28-.16.17-.44.46-.62.63,1-.96,2.52-2.27,2.86-2.74.23-.22.57-.58.89-.93l.73-.71c-.3.29-.53.52-.72.7.43-.47.83-.92.9-.96l2.52-2.5c.49-.47,1.12-1.12,1.64-1.66l.46-.4c.91-.92.94-.91.84-.79,3.28-3.08,4.86-4.97,8.39-8.31.61-.7-.84.69-.97.77.5-.57,2.43-2.57,3.38-3.58,1.6-1.46,6.35-6.09,5.7-5.24,2.84-2.82-.94.82.44-.63l.33-.32c-.99.97-1.79,1.7-2.38,2.21-.27.16,2.22-2.35,3-3.1l-.46.61c2.58-2.64,1.93-2.21,3.47-3.91,2.11-2.05.98-.78,1.49-1.15l2.17-2.2.06.06c1.4-1.43,1.68-1.82,3.67-3.76-1.37,1.47,3-2.89,1.11-.86,1.11-1.07,1.31-1.5,1.95-1.98.7-.82-1.01.95-1.58,1.48-.53.36,2.35-2.44,3.64-3.77.16-.07-.82.93.75-.58.28-.35,1.24-1.36,2.15-2.19-.06-.06,1.74-1.76,2.61-2.63-1,.97-2.46,2.35-1.86,1.66.74-.79,1.39-1.46,3.14-3.19l-1.23,1.17c1.44-1.61,2.57-2.45,4.62-4.55-.84.91-1.39,1.45-2.11,2.26.95-1.01,2.77-2.91,4.27-4.46l1.83-1.67c.18-.26,1.97-1.96,1.91-2.02,2.21-2.14-1.68,1.82-1.86,2.08,2.77-2.69,2.09-2.28,4.8-4.81l-.82.92c.87-.87,2.59-2.64,2.73-2.73-.02-.02-.45.43-.99.97.42-.65,3.95-4.11,3.51-3.9l-1.21,1.2c1.82-1.87,3.06-3.26,4.52-4.64,1.13-1.05-.68.84-1.3,1.52,1.74-1.73,1.28-1.54,3.37-3.6-1.11,1.07-.94.82-.32.14-1.21,1.19-3.73,3.67-3.25,3.28l.45-.42c-.08.14-.72.81-1.03,1.15-1.64,1.64-.82.71-1.17,1.02-2.75,2.71-.1.34-2.61,2.83l-.35.3c-1.17,1.23-3.02,3.09-3.28,3.49-1.17,1.02-2.8,2.86-4.04,4.01-.4.06,4.26-4.24,5.59-5.75-1.34,1.27.67-.83,1.18-1.42l-4.06,4.21c-.35.31-1.65,1.43-2.34,2.25l.33-.32c-1.62,1.66-1.11,1.29-2.55,2.68-.23.2.17-.26.27-.38-1.32,1.29-1.05,1.13-1.91,2.02-1.32,1.29.59-.72-.53.35-1.45,1.58-2.42,2.38-3.73,3.7.65-.46-5.1,5.36-2.18,2.6l-3.09,3.22c-1.03.93,2.04-2.3,1.09-1.51l2.52-2.51c-.53.3-5.19,5.34-6.98,6.87-1.35,1.34-1,1.02-3.6,3.51l.54-.33c-1.34,1.29-1.83,1.66-1.91,1.7-.77.78-1.46,1.47-2.19,2.18.17-.2.43-.49.89-.96-1.05.93-1.32,1.24-1.63,1.62-.51.56-1.33,1.37-2.15,2.2l.7-.78c-.49.51-1.1,1.14-1.14,1.22-.34.34-.66.67-.97.99.24-.2.85-.69,2.05-1.84-3.1,3.01-5.47,5.43-8.17,7.96.07-.13,1.12-1.26.79-.93-1.32,1.29-2.69,2.77-2.53,2.69-.29.3-.52.53-.72.73-.28.22-.61.5-1.24,1.12-.15.13-.4.36-.85.81-.35.52-2.91,2.99-3.41,3.57.6-.58,1.32-1.31,2.06-2.05-1,1.11-1.88,2.11-2.73,2.88,1.9-2.01-2.17,2,.75-.97-2.18,1.97-1.01,1.16-3.24,3.31l-1.46,1.38c.16-.28,2.26-2.32,1.91-2.02l-.98.99c.94-1.03,4.68-4.71,6.9-7.06l-4.62,4.55c-5.71,5.85-13,12.98-17.77,18.01.07-.07.14-.14.21-.21-.08.09-.11.14-.16.24l-.24.21-.92,1.02c-1.16,1.05-3.24,3.1-5.04,4.81q1.14-1.07,1.29-1.13c-.16.28-.3.48-1.96,2.09-.06-.03.95-1.04-.29.14.65-.6.12-.02-.59.7-.95.89-2.49,2.43-2.56,2.4.42-.44.77-.77,1.07-1.05.42-.44-1.77,1.7-.54.39l-1.65,1.68c-1.01.94.59-.7.18-.34-2.74,2.8-4.06,4.32-6.54,6.86.09-.14.03-.26.03-.21-1.96,1.9-4.03,4.24-6.22,6.45.29-.35,1.13-1.16,1.78-1.84-6.76,6.68-12.26,12.18-18.65,18.39l-1.54,1.74-1.71,1.58c-6.7,6.57-11.72,11.72-18,18.06-1.96,1.97-1.25,1.11-2.2,2.01-4.32,4.3-5.26,5.46-9.35,9.59.54-.6,1.41-1.64-.36.12-.3.36-.47.62-1.61,1.72l.54-.6c-1.06.98-2.01,2-4.14,4.1-3.73,3.73-7.22,7.37-10.18,10.55-3.31,3.29.24-.45-.41.16,2.36-2.29,1.6-1.64,2.07-2.17-1.2,1.26-2.68,2.77-3.38,3.33-1.71,1.72-2.49,2.49-4.14,4.24.83-.88,1.6-1.57.83-.74-1.43,1.38-4.97,4.98-4.86,4.69-8.11,8.14-17.22,17.22-25.92,25.93-1.42,1.51,1.13-1.1.36-.26-2.07,2.19-1.72,1.66-3.38,3.41l.66-.75c-2.55,2.53-5.16,5.32-7.58,7.83.35-.46-2.07,1.98-.06-.1-1.19,1.21-2.9,2.43-3.78,3.41l1.59-1.13c-.04.09-1.75,1.76-1.56,1.61-1.1,1.01-2.44,2.24-3.17,2.97-.41.3,1.43-1.52,2.43-2.52.05-.25-3.44,3.31-2.07,1.77-2.13,2.16.35-.26-.89,1.06l-1.89,1.85,1.48-1.41c-1.53,1.59-2,2.2-4.14,4.23l-2.07,2.26c-.3.14-1.59,1.57-2.72,2.66l.65-.75c-1.48,1.48-2.06,2.04-3.02,2.94.77-.9,1.36-1.32,1.65-1.74l-1.65,1.6c.05.04-.95,1.1.24-.03-1.43,1.59-2.19,2.48-5.97,6.26-1.78,1.63,1.77-1.9.99-1.27-3.96,3.89-4.61,4.99-6.91,7.28-2.96,2.9-2.72,2.8-5.68,5.77.89-.99-2.13,2.02-2.72,2.52l1.12-1.22c-.89.92-1.77,1.76-1.54,1.46.24-.1-3.79,3.91-5.8,5.99l.42-.3c-1.58,1.62-3.76,3.87-5.47,5.55-2.5,2.54-1.88,2.02-3.76,4.02-1.13,1.02-1.07.84-.78.42.7-.65,1.83-1.81,2.96-2.9,3.14-3.24,5.49-5.84,8.7-8.99,1.24-1.52-2.13,2.16-3.72,3.66.04-.05.15-.17.26-.29-.14.14-.26.26-.39.38,1.12-1.16,2.96-3.04,3.2-3.42-1.89,1.92-1.24,1.52-3.67,3.83-1.72,1.8-3.26,3.12-4.33,4.17-1.12,1.22-1.05,1.39-3.95,4.24l1.18-1.34c-3.26,3.26-1.41,1.64-4.43,4.66,1.07-1.05-.95,1.1,1.07-.91-.95,1.03-3.14,3.24-4.8,4.85-.42.44-.06.12-.11.22,1.87-1.76,2.81-2.92,4.38-4.33l1.18-1.35c1.72-1.66,1.96-1.76.96-.69.47-.48.88-.91,1.24-1.24.42-.16-2.07,1.98-2.55,2.67l1.18-1.2c.6-.43-2.71,2.85-4.25,4.39-1.78,1.7-3.38,3.27-3.56,3.33l2.31-2.36c-1.26,1.16-2.95,3.01-4.31,4.36-.1.08-.23.21-.4.36.07-.06.12-.1.13-.09-.29.29-.56.53-.79.74-1.19,1.19-2.91,2.97-4.03,4.06l.19-.08.12-.18c1.09-1.09,2.6-2.53,1.82-1.67-2.42,2.5-3.02,2.89-3.65,3.43.48-.65,2.4-2.4,3.62-3.68-.83.67-2.51,2.49-5.1,4.98.92-1.1,2.95-2.95,3.42-3.59-2.06,2.03-2.53,2.63-4.71,4.76.23-.32,2.33-2.42,2.14-2.33l-1.41,1.36c3.39-3.4-.71.48,1.92-2.19-1.29,1.21-1.67,1.82-3.5,3.54.53-.46,2.02-1.8.36-.07l-1.95,1.9c-.85.76,1.91-2.1.62-.88l-1.98,2.04c.09-.04,1.07-.99.5-.35-1.19,1.13-1.8,2.01-3.13,3.42-1.09,1.09-1.96,1.95-2.38,2.3-2.67,2.83-6.16,6.31-8.62,8.92,1.68-1.78-.16-.02-1.23.97,1.98-2,1.91-2.1,1.72-2.01-1.2,1.22-1.91,2.1-1.27,1.52-2.06,1.99-1.34,1.45-3.17,3.17-1.18,1.12.49-.66.06-.29-2.19,2.18-.49.7-2.89,3.05.12-.14.33-.36.13-.19-1.3,1.26-2.64,2.68-2.87,3-1.47,1.25-3.83,3.85-3.67,3.48-3.07,3.13.52-.4-.06.24-1.22,1.32-3.61,3.62-4.35,4.34.76-.77,1.44-1.5,2.19-2.22l-.73.58c-3.91,3.8-2.28,2.61-6.06,6.27,1.88-1.96.58-.69,1.48-1.7-.56.6-3.5,3.49-1.67,1.78-1.41,1.39-2.39,2.35-3.37,3.3-1.21,1.27-2.54,2.64-3.22,3.41-1.97,1.95-3.47,3.35-4.43,4.25-4.06,4.17-7.96,7.88-12.24,12.28l.32-.32c-3.38,3.35,1.59-1.39-1.91,2.1.38-.56-2.16,2.03-3.33,3.12-4.34,4.24-7.35,7.48-11.36,11.37.01-.05.25-.33,1.01-1.1-3.04,2.99-5.46,5.44-8.18,8.15l.11-.13c-4.43,4.29-8.3,8.33-12.8,12.87.35-.38.42-.51.69-.8-2.29,2.25-5.94,5.88-7.46,7.55-2.79,2.61-1.76,1.81-5.32,5.2-.22.18.33-.36.56-.59-1.74,1.68-2.94,2.9-4.68,4.61-3.75,3.87-4.58,4.93-9.04,9.32-.35.1,2.69-2.75,2.69-2.95-.86.9-1.6,1.69-2.85,2.89.68-.78.13-.19.59-.74-.96.9-3.63,3.89-3.63,3.86-.03.07.31-.23,1.18-1.11-.96,1.11-4.34,4.36-6.46,6.53.7-.7,2.92-2.86,2.15-1.98-2.9,2.85-3.74,3.93-5.71,5.99-2.71,2.6,1.85-2.06,1.27-1.65-.48.41-1.61,1.41-.53.26-2.4,2.36-4.04,4.15-6.15,6.3l.03-.08c-2.96,2.98-6.02,6.25-8.56,8.69l1.35-1.29c-.47.5-1.98,1.99-2.75,2.87.05-.13-1.92,1.77-1.16.94-1.19,1.45-6.67,6.83-8.03,8.43-.83.76-.24.07-.03-.2,1.88-1.86,2.55-2.47,3.48-3.51-1.56,1.56-2.73,2.67-2.52,2.4-1.48,1.64-5.16,5.39-5.87,6.25-1.18,1.1-2.29,2.16-1.96,1.7-4.74,4.82,2.57-2.16-2.83,3.24-2.53,2.4,2.31-2.49-1.1.88l.62-.64c-2.62,2.28-1.6,1.84-4.38,4.61-.46.28,1.87-2-.12-.15-2.52,2.56-3.49,3.82-6.06,6.33l.36-.44c-1.62,1.63-4.8,4.77-6.41,6.4-.1.06.14-.17.45-.49-3.03,2.96-1.2,1.3-3.72,3.69l-.66.75c1.26-1.2,3.69-3.54,5.2-5.15-1.5,1.61,2.56-2.32,1.87-1.47l.28-.34c4.21-3.93,9.46-9.15,14.68-14.26,3.16-3.35,5.58-5.5,9.01-9.06.44-.65.63-.68,3.61-3.7-1.57,1.6-.1.27.91-.72.56-.61,1.26-1.34,1.96-2.06.64-.57,4.51-4.26,5.82-5.72,1.86-1.79-.39.46-.77.88.8-.69,1.44-1.53,2.09-2.1,0,0-.02.04-.2.24,2.79-2.8,4.48-4.44,7.41-7.33.13-.35,2.82-2.9,4.07-4.23-.38.45,1.68-1.6,2.52-2.4l1.48-1.64c1.47-1.61,2.19-2.1,4.15-4.13l-.5.46c1.43-1.49,5.32-5.26,6.81-6.63,13.24-13.66,20.92-20.69,35.04-34.92.89-.95-.73.62-.05-.15,1.43-1.45,1.76-1.78,3.07-3.09-1.19,1.13-.96.98-.85.8l-1.98,2.04c-.1.09.11-.14-.09.04-.67.68-1.44,1.5-2.31,2.36,1.21-1.27,1.48-1.7,3.21-3.37-.12.14-.34.36-.78.82,1.41-1.4,1.44-1.5,2.51-2.54,1.31-1.27.96-.98,1.17-1.11l4.04-3.96c1.9-2.09,4.45-4.46,5.11-5.1-.36.51-2.63,2.67-3.54,3.73l1.5-1.39.03-.14,2.07-2.04-.1.13c.22-.27.45-.54,1-1.04.1-.08.31-.27.09-.03l1.44-1.5c-.79.91,1.3-1.27,1.16-.99,4.82-4.75,5.99-6.17,10.29-10.29-.72.65,1.23-1.44,2.53-2.72.76-.73.97-.9.52-.4l1.66-1.73c2.23-2.02,4.24-4.16,7.39-7.24l-.13.19c1.12-1.19,2.33-2.46,4.08-4.18l-.26.38c2.16-2.08,1.49-1.75,3.87-4.05-.08-.05-1.59,1.39-1.88,1.56.62-.49,3.14-2.99,2.51-2.45,2.31-2.36,1.62-1.62,1.83-1.8l1.33-1.41c1.64-1.64.61-.44.04.2,1.46-1.6,3.17-3.22,4.92-4.94l-.67.73,2.3-2.27c1.44-1.54,3.52-3.63,5.47-5.53l-1.24,1.41c1.39-1.31.67-.72,1.01-1.1,2.09-2.17,2.61-2.57,3.78-3.65,3.33-3.51,6.94-6.67,9.74-9.72ZM557.17,125.01l-.33.3c.7-.73,1.09-1.15.33-.3ZM538.38,143.75c2.23-2.29,1.55-1.54,1.75-1.68-2.25,2.2-3.46,3.47-5.46,5.41.33-.3.42-.34.53-.42-.79.78-1.59,1.55-1.9,1.77.89-1.06,6.11-6,5.08-5.07ZM580.21,101.08c-.07.08-.15.18-.25.28h-.01s.26-.28.26-.28ZM569.1,112.34c-.18.14-.46.41-.81.74.23-.18.45-.37.81-.74ZM546.73,134.5c-.55.48-1.71,1.66-2.56,2.52.4-.4,1.13-1.1,2.56-2.52ZM406.3,275.01c.66-.69,1.89-1.99.71-.86-.53.59-1.65,1.61-2.08,2.12-.07.07-.08.07-.12.11.7-.65,1.28-1.18,1.49-1.38ZM340.56,341.33c.09-.16.55-.69.2-.4.06-.05.13-.13.19-.19-.18.16-.33.29-.21.15-.54.53-1.12,1.09-1.49,1.48-.07.29-1.19,1.45,1.3-1.04Z"/>
      <path class="cls-2" d="M362.14,318.8c-.25.26-.45.46-.61.62.17-.17.36-.36.61-.62Z"/>
      <path class="cls-2" d="M339.36,342.26c-.04.06.6-.57,1.39-1.33-.17.14-.56.51-1.39,1.33Z"/>
      <path class="cls-2" d="M617,65.06l-.64.67,1.34-1.27c2.15-2.22,2.21-2.38,2.69-2.97-1.9,2.01-3.13,3.18-5.63,5.71l2.24-2.13Z"/>
      <path class="cls-2" d="M615.51,65.79c-.24.2-.82.71-1.15,1.04l-.29.36,1.44-1.4Z"/>
      <path class="cls-2" d="M589.47,91.49l2.1-2.04c.62-.69-1.83,1.67-2.1,2.04Z"/>
      <path class="cls-2" d="M599.27,82.89l1.05-1.13c-1.01.95-2.32,2.27-2.49,2.52,1.29-1.33.35-.3,1.44-1.4Z"/>
      <path class="cls-2" d="M583.9,97.06c-.58.71-2.1,2.04-2.47,2.54.53-.56,2.43-2.37,2.47-2.54Z"/>
      <path class="cls-2" d="M586,96.25c.72-.59,1.75-1.74,3.08-3.04-1.09,1.09-2.69,2.55-3.08,3.04Z"/>
      <path class="cls-2" d="M572.97,108.37c.06-.15.94-1.03,1.93-2-.31.34-.51.58-.94,1.03,1.6-1.67,1.72-1.78,3-3.11-1.34,1.27-3.33,3.22-3.18,2.95-.93,1.02-2.06,2.29-.81,1.13Z"/>
      <path class="cls-2" d="M582.85,99.41c1.11-1.07,1.81-1.68,3.12-3-.26.19-.75.58-2.27,2.12l.49-.6c-1.46,1.38.63-.48-1.34,1.48Z"/>
      <path class="cls-2" d="M566.83,114.24l.69-.63c1.48-1.57,3.47-3.51,4.26-4.45-1.84,1.85-4.1,4.17-4.94,5.08Z"/>
      <path class="cls-2" d="M577.39,104.67l-.13.29c1.54-1.52-.14.08.39-.48.45-.42,1.11-1.07,1.41-1.41-1.73,1.75-.18.05-1.68,1.6Z"/>
      <path class="cls-2" d="M572.46,109.77l-1.92,1.99,1.62-1.44c2.26-2.32.06-.16.31-.55Z"/>
      <path class="cls-2" d="M570.01,112.12l-.23.2-2.82,3.05c1.7-1.8,1.81-1.9,3.05-3.26Z"/>
      <path class="cls-2" d="M533.91,147.18c-.3.36,1.47-1.31.69-.62.3-.36-2.04,1.89-.69.62Z"/>
      <path class="cls-2" d="M541.56,140.81c-.86.81-3.55,3.6-4.73,4.82,1.41-1.44,4.97-4.97,4.73-4.82Z"/>
      <path class="cls-2" d="M536.35,146.12c.09-.1.27-.28.48-.5-.22.22-.37.38-.48.5Z"/>
      <path class="cls-2" d="M486.09,196.74c-.13.13-.25.26-.36.37.12-.13.23-.24.36-.37Z"/>
      <path class="cls-2" d="M487.28,195.51c.83-.8,2.42-2.44,2.66-2.76-1.26,1.3-2.39,2.44-3.85,3.98.56-.57,1.28-1.23,1.18-1.22Z"/>
      <path class="cls-2" d="M475.68,207.08c.58-.62,1.42-1.44,1.18-1.26-.35.33-1.6,1.64-1.18,1.26Z"/>
      <path class="cls-2" d="M396.66,284.11c-1.13,1.1-1.77,1.76-1.42,1.51,1.25-1.25.54-.6,1.42-1.51Z"/>
      <polygon class="cls-2" points="393.81 287.06 393.64 287.19 392.87 287.88 393.81 287.06"/>
      <path class="cls-2" d="M386.06,294.67c.05-.06.24-.27.44-.48-.43.44-.79.82-.44.48Z"/>
      <path class="cls-2" d="M386.72,293.96c-.07.07-.15.15-.22.22.07-.07.15-.15.22-.22Z"/>
      <path class="cls-2" d="M387.24,293.47l.06-.11c-.12.13-.36.37-.58.6.21-.21.43-.43.52-.49Z"/>
      <path class="cls-2" d="M383.75,296.97l1.54-1.39c1.48-1.56-1.77,1.69-.35.11l-1.19,1.28Z"/>
      <path class="cls-2" d="M378.66,302.09c-1.42,1.37-3.32,3.51-4.2,4.21-3.91,4.01,1.06-.76-3.43,3.8,4.33-4.24,2-2.35,5.86-6.1-1.89,1.78,1.19-1.28,1.78-1.91Z"/>
      <path class="cls-2" d="M379.49,301.57c.18-.27-1.6,1.5-2.12,2.08.52-.51,1.48-1.34,2.12-2.08Z"/>
      <polygon class="cls-2" points="370.96 309.87 369.72 311.05 369.43 311.39 370.96 309.87"/>
      <path class="cls-2" d="M366.35,314.45l1.13-1.23c-.37.41-2.14,2.17-1.13,1.23Z"/>
      <path class="cls-2" d="M359.89,320.78c-1.13,1.09-2.01,2.22.31-.15l-.54.53c.12-.16-1.18,1.06.23-.38Z"/>
      <path class="cls-2" d="M345.28,335.77c.77-.76,1.65-1.68,1.47-1.55l-2.07,2.12.6-.57Z"/>
      <path class="cls-2" d="M345.88,335.75c.78-.63,1.96-1.97,3.37-3.34-1.59,1.57-1.42,1.37-3.37,3.34Z"/>
      <path class="cls-2" d="M342.78,338.05c.53-.59,1.43-1.45,1.96-1.97-.3.22-1.73,1.67-1.96,1.97Z"/>
      <path class="cls-2" d="M339.47,341.42c-.71.65.11-.19-.43.3-1.5,1.44-3.04,2.98-3.83,3.85.42-.36,1.03-.8.46-.16,2.32-2.37,3.38-3.7,4.63-4.74l1.83-2.08c-1.89,1.85-1.35,1.53-2.66,2.82Z"/>
      <path class="cls-2" d="M344.45,336.92l-1.3,1.21c.29-.21-.65.75-1.3,1.43.42-.24,1.89-1.92,2.6-2.64Z"/>
      <polygon class="cls-2" points="326.54 354.46 323.9 357.15 324.77 356.29 326.54 354.46"/>
      <polygon class="cls-2" points="324.8 356.14 324.7 356.18 322.72 358.27 324.8 356.14"/>
      <polygon class="cls-2" points="321.98 358.9 322.3 358.59 323.84 357 321.98 358.9"/>
      <path class="cls-2" d="M316.41,364.43l.53-.45c.66-.68,2.06-1.99,1.88-1.91-.57.6-1.97,2-2.4,2.36Z"/>
      <path class="cls-2" d="M299.02,383.82c.46-.51.14-.24-.17.02l-.7.83c.22-.23.67-.68.87-.85Z"/>
      <path class="cls-2" d="M295.7,386.92l-1.9,2.05c2.29-2.26,2.55-2.64,4.52-4.64-.87.82-1.99,2.05-3.07,3.09l.45-.5Z"/>
      <path class="cls-2" d="M256.07,426.43c.13-.23-.31.23,1.13-1.27-1.98,2.04-3.72,3.76-6.02,6.07.42-.36-1.24,1.41-.37.51l2.54-2.6-.35.42c1.84-1.77,1.12-1.23,3.08-3.13Z"/>
      <path class="cls-2" d="M152.18,529.28c.22-.26-.12.03-.45.31-1.51,1.56.75-.63.45-.31Z"/>
    </g>
  </g>
</svg>