<?xml version="1.0" encoding="UTF-8"?>
<svg xmlns="http://www.w3.org/2000/svg" viewBox="0 0 783.36 587.52">
  <defs>
    <style>
      .cls-1 {
        fill: #fff2db;
      }

      .cls-1, .cls-2 {
        stroke-width: 0px;
      }

      .cls-2 {
        fill: #404040;
      }
    </style>
  </defs>
  <g id="Sfondo_Immagine" data-name="Sfondo Immagine">
    <rect class="cls-1" width="783.36" height="587.52"/>
  </g>
  <g id="Livello_4" data-name="Livello 4">
    <g>
      <path class="cls-2" d="M739.54,514.81c1.04-.09-.35-.03-1.63-.02l1.63.02Z"/>
      <path class="cls-2" d="M737.91,514.79h-1.15c.3,0,.71,0,1.15,0Z"/>
      <path class="cls-2" d="M727.18,514.73c2.47-.07,5.41.03,6.95-.08-2.49-.06-6.33-.04-6.95.08Z"/>
      <polygon class="cls-2" points="730.89 514.8 731.2 514.74 729.04 514.83 730.89 514.8"/>
      <polygon class="cls-2" points="732.44 514.86 732.12 514.83 728.74 514.89 732.44 514.86"/>
      <path class="cls-2" d="M718.84,514.69l2.47-.02c2.32.08-1.53.11.02.16,3.09,0,1.06-.17,4.92-.14-.31-.08-6.18,0-5.56-.12-3.24-.04-.16.07-1.86.11Z"/>
      <path class="cls-2" d="M570,515.33c-.13,0-.23,0-.35-.01.14.01.28.02.35.01Z"/>
      <path class="cls-2" d="M529.23,515.41c-.56-.01-1.12-.02-1.67-.02.17.01.38.02.66.03h1.01Z"/>
      <path class="cls-2" d="M595.52,515.11c.59.01,1.12.02,1.61.03-.31-.02-.78-.03-1.61-.03Z"/>
      <path class="cls-2" d="M335.86,514.68c.1,0,.18-.02.21-.03-.02,0-.05,0-.07,0l-.45.03h.31Z"/>
      <path class="cls-2" d="M483.58,515.59c-.64,0-1.28,0-1.84.01,1.07,0,1.59,0,1.84-.01Z"/>
      <path class="cls-2" d="M610.23,515.1c-.22,0-.42,0-.61,0,.19,0,.46,0,.76.01h-.11s-.01-.01-.03-.01Z"/>
      <path class="cls-2" d="M542.54,515.57c-.55,0-1.05-.01-1.48-.01.51,0,1,.01,1.48.01Z"/>
      <path class="cls-2" d="M681.04,514.56c-.7-.01-1.28,0-1.8.01.45.02,1.01.02,1.8-.01Z"/>
      <path class="cls-2" d="M666.45,514.57s.06,0,.09,0c-.09-.01-.13-.01-.09,0Z"/>
      <path class="cls-2" d="M657.13,514.56c.06,0,.11,0,.16,0-.11-.01-.16-.01-.16,0Z"/>
      <path class="cls-2" d="M679.24,514.57c-1.21-.05-1.57-.2-3.13-.03l.31.02c-.94-.04-2.32.03-3.4.03.11.02.24.03.39.04.55,0,1.27,0,2.37.02,1.32.03,2.17-.04,3.45-.08Z"/>
      <path class="cls-2" d="M570.15,515.3c.14.03,1.12.01,0,0h0Z"/>
      <path class="cls-2" d="M582.72,515.17c-.41,0-.82,0-1.24,0,.4,0,.79.01,1.24,0Z"/>
      <path class="cls-2" d="M630.08,515.22c-.08,0-.15,0-.22,0-.07.02.11.01.22,0Z"/>
      <path class="cls-2" d="M580.34,515.17c.38,0,.76,0,1.14,0-.35,0-.71-.01-1.14,0Z"/>
      <path class="cls-2" d="M615.86,515.13c-.07,0-.14,0-.19,0,.04,0,.11,0,.19,0Z"/>
      <path class="cls-2" d="M141.15,514.15c.96-.01,1.51.03,2.42.04,2.02-.11-4.17,0-1.24-.1-.9,0-1.6.02-2.26.03l1.28.1c1.77-.04-1.18-.03-.2-.08Z"/>
      <path class="cls-2" d="M324.02,514.47h.41c-.28-.04-.03-.05-1.59-.08-1.33.07.74.18-1.58.26.45,0,1.12,0,1.76,0-.96-.06-.01-.13,1.01-.19Z"/>
      <path class="cls-2" d="M323.01,514.65s.04,0,.07,0c.1,0,.21.02.34.03.33,0,.66,0,.93.01-.25-.02-.76-.03-1.33-.04Z"/>
      <path class="cls-2" d="M172.76,514.2c.39,0,.74,0,1.06,0-.52-.02-.83-.02-1.06,0Z"/>
      <path class="cls-2" d="M486.51,514.29c.46-.01.91-.02,1.28-.03-.7,0-1.05.02-1.28.03Z"/>
      <path class="cls-2" d="M346.52,514.57c.36,0,.73.01,1.13.02.23,0,.43,0,.71,0h-1.84Z"/>
      <path class="cls-2" d="M271.53,515.56c.8-.12-.62,0-2.22-.06l-1.49.06c1.36.02,2.62,0,3.7,0Z"/>
      <path class="cls-2" d="M139.97,514.12s0,0-.02.01c.04,0,.06,0,.11,0h-.1Z"/>
      <path class="cls-2" d="M227.47,515.58c-.25,0-.48-.01-.72-.02.14,0,.37.01.72.02Z"/>
      <path class="cls-2" d="M331.84,514.7h5.67s-1.65-.02-1.65-.02c-.79.06-3.23-.05-4.02.02Z"/>
      <path class="cls-2" d="M295.72,515.62l.51.07c5.64-.15,12.12.07,16.61-.15,6.87.25,4.51-.22,10.81,0l-.21-.04c20.72.04,42.71.17,62.08.05l-.04.05c31.22.09,61.63-.02,92.57.02,2.89-.05,1.15-.16,3.63-.21,1.08,0,3.52,0,3.54.06-2.09.03-.91.09-1.63.11,3.48,0,7.98.06,11.08-.01l-2.6-.08c1.21-.03,3.1-.01,4.2,0-.46.04,1.13.13.18.15,6.55-.2,5.11.08,10.63,0,1.1-.17,8-.31,12.55-.43l2.39.04c-3.17,0,.06.12-3.88.11,3.28.05,6.33-.02,9.44,0-.6-.04-.45-.1.8-.12,1.91.02,2.08.11,4.26.12l-2.15.05c1.45.06,2.7-.02,4.04-.03.44.07,3.69.08,3.12.16,2.93-.1,3.97-.04,7.13-.1-3.29-.07.84-.09.48-.15l-3.7.03c5.22.05-1.7.01-1.31.13-2.46-.06,3.37-.2-.74-.18,4.91-.06,5.95,0,10.97-.11-3.03.02.58-.08-1.05-.11,3.85,0,.96.04,2.15.12,2.09,0,2.86.06,4.79-.02,3.4.04-.51.09,1.21.14-1.26.08-9.45-.1-8.52.16-1.77,0-3.93.1-6.49.1,2.23.03,5.42.12,8.17.06l.14-.15c2.09,0,2.52-.1,4.03-.09-.8.04.64.11,2.33.09-.48-.02-1.15-.02-.97-.04,3.12-.01,3.55-.11,7.26-.14-3.06-.04-3.69-.08-6.56-.15.77-.1,2.02-.02,3.7-.03-.25.01-.6.02-.11.04l1.79-.05c3.82.04-.48.15,2.67.2,2.17.09,2.98-.05,4.65,0-.11,0-.22-.02-.32-.03.37,0,.64,0,.83,0-.01,0-.03,0-.03,0,2.02-.02,4.2,0,4.77-.08.21.04,1.77-.01,2.43-.03,1.13-.03,3.83-.12,5.52,0-.04,0-.09,0-.13,0,2.52.01,4.49.05,3.94.1l4.07.03-.44.1c3.71-.03,3.34-.09,5.88-.19,2.66.06,7.3.01,9.06-.03.29,0,.74,0,1.48,0l-1.55-.04c2.89,0,2.54-.05,4.45-.05-.4,0-.45-.02.61,0,.32,0,.67,0,1.1,0-.1.01-.52,0-.95,0l.35.03c2.32.11,3.55-.06,6.02-.02-.24,0-.63.01-.89,0,1.39.03,3.39.17,3.96.08.32.01.81,0,1.29-.03l1.02.02c-.42,0-.74,0-1.01-.02.64-.03,1.24-.06,1.32-.04l3.55.02c.67.01,1.59,0,2.33-.01l.6.04c1.3,0,1.31.02,1.15.03,4.5.15,6.95-.07,11.81.05.93-.07-1.08-.1-1.23-.14.76-.05,3.54-.1,4.93-.14,2.16.1,8.8.18,7.73.32,4,.01-1.25-.09.76-.13h.46c-1.38-.01-2.46-.06-3.24-.11-.3-.08,3.23-.1,4.31-.08l-.76.11c3.69-.04,2.92-.2,5.22-.31,2.94.04,1.25.14,1.87.24l3.09-.03v.08c2.01-.02,2.47-.1,5.25-.07-2.01.08,4.17.07,1.39.18,1.54.03,1.99-.13,2.78-.02,1.07-.09-1.38-.04-2.16-.07-.63-.12,3.39-.06,5.24-.09.16.06-1.24.08.94.12.45-.05,1.83-.09,3.07-.03,0-.08,2.47-.02,3.71-.01-1.39-.02-3.4-.07-2.49-.14,1.08-.03,2.01-.05,4.48-.04l-1.7-.04c2.15-.12,3.55.09,6.49.05-1.24.05-2.01.05-3.09.11,1.39-.04,4.01-.1,6.17-.13l2.47.12c.31-.06,2.78,0,2.78-.08,3.08.05-2.47.1-2.78.16,3.86.05,3.09-.13,6.79-.01l-1.23.08c1.23,0,3.7-.04,3.86,0,0-.03-.62-.02-1.39-.02.76-.16,5.7-.11,5.24-.28h-1.7c2.61-.04,4.47-.16,6.47-.1,1.54.05-1.08.11-2,.16,2.46.01,2-.18,4.93-.17-1.54-.03-1.25-.09-.32-.13-1.7-.01-5.24-.04-4.62.03l.61.02c-.15.04-1.08.06-1.54.08-2.32,0-1.08-.08-1.55-.11-3.86-.03-.31.17-3.85.16l-.46-.03c-1.7.04-4.32.05-4.79.15-1.55-.11-4,.04-5.7-.02-.32-.24,6.01.02,8.01-.11-1.85-.05,1.06-.11,1.84-.17l-5.85.1c-.47-.03-2.18-.15-3.24-.06h.46c-2.32.03-1.69.13-3.7.1-.31-.02.31-.06.46-.08-1.85-.02-1.54.05-2.78.08-1.85-.02.93-.1-.62-.12-2.15.09-3.39-.02-5.25-.02.79.13-7.39.18-3.38.3l-4.46.09c-1.39-.07,3.07-.19,1.84-.3h3.55c-.59-.16-7.44.11-9.8-.07-1.9,0-1.43.02-5.03-.07l.62.15c-1.86-.03-2.47-.12-2.55-.14-1.09,0-2.08,0-3.09,0,.27-.02.65-.04,1.31-.05-1.4-.08-1.81-.05-2.3,0-.76.04-1.91.03-3.08.03l1.05-.06c-.71.01-1.59.03-1.67.06-.48,0-.94,0-1.38.01.31.03,1.08.11,2.75.15-4.32-.06-7.71-.03-11.41-.15.14-.04,1.69-.1,1.22-.1-1.85-.02-3.86.05-3.69.12-.42,0-.74,0-1.02,0-.35-.04-.79-.08-1.67-.08-.2-.01-.54-.03-1.17-.03-.62.12-4.17.06-4.94.11.84.01,1.86.01,2.9,0-1.49.08-2.82.17-3.97.11,2.77-.08-2.95-.12,1.22-.16-2.93-.15-1.53.11-4.63.05l-2.01-.06c.31-.09,3.24-.04,2.78-.08h-1.39c1.39-.05,6.64-.01,9.87-.11l-6.49-.05c-8.17.1-18.36-.02-25.3.17.1,0,.2,0,.29,0-.12,0-.18.02-.28.06l-.31-.02-1.37.06c-1.56-.08-4.48-.1-6.96-.16q1.56.05,1.71.12c-.31.09-.55.12-2.87.09-.02-.06,1.41-.06-.3-.11.88.03.1.07-.91.08-1.31-.04-3.48-.05-3.51-.11.6-.02,1.09,0,1.5.01.6-.02-2.45-.06-.66-.11l-2.36.02c-1.38-.05.91-.08.37-.11-3.92.04-5.93.18-9.48.22.17-.03.21-.17.17-.13-2.73-.04-5.85.15-8.96.16.46-.04,1.62-.02,2.56-.04-9.5-.05-17.28-.05-26.19-.18l-2.32.14-2.33-.09c-9.38-.09-16.58,0-25.5.04-2.78,0-1.67-.1-2.97-.14-6.09-.02-7.58.14-13.39.17.8-.04,2.16-.16-.34-.17-.47.04-.77.1-2.35.08l.8-.04c-1.44-.06-2.84,0-5.82-.03-5.28,0-10.32.1-14.66.26-4.67-.01.48-.15-.4-.18,3.29.05,2.29-.02,3-.07-1.74.04-3.85.06-4.75-.04-2.43,0-3.52,0-5.92.07,1.21-.03,2.24.02,1.11.07-1.98-.03-7.04,0-6.76-.12-11.49.02-24.36,0-36.67,0-2.08.06,1.58.02.43.07-3.02.08-2.38-.04-4.8.02l1-.07c-3.59-.01-7.41.12-10.89.18.58-.08-2.86-.06.03-.11-1.7.01-3.77-.33-5.08-.26l1.92.32c-.09.03-2.48.01-2.24.03-1.49-.06-3.31-.14-4.34-.14-.5-.08,2.09-.06,3.5-.06.21-.14-4.77-.09-2.72-.21-3.04.02.43.07-1.38.12l-2.65-.03,2.04.05c-2.21.04-2.97.14-5.92.07l-3.06.13c-.31-.11-2.23-.02-3.81-.04l.99-.07c-2.09,0-2.9-.02-4.21-.05,1.18-.09,1.9.02,2.4-.07l-2.3-.03c.01.06-1.45.11.19.15-2.13.11-3.3.21-8.65.2-2.42-.1,2.6-.09,1.6-.2-5.55-.04-6.79.27-10.03.26-4.14-.04-3.9.05-8.1.06,1.33-.07-2.93-.08-3.7-.14l1.66-.07c-1.28.02-2.5,0-2.12-.06.24.1-5.44.09-8.34.14l.51.08c-2.26.03-5.39.08-7.79.06-3.57.03-2.76.1-5.5.19-1.52-.07-1.35-.16-.85-.25.95.04,2.57.02,4.14.04,4.51-.07,8.01-.24,12.51-.2,1.95-.2-3.03.02-5.22-.05.06-.01.22-.02.39-.02-.19,0-.37,0-.55,0,1.61-.02,4.24-.06,4.68-.16-2.7.02-1.96.2-5.31.11-2.48.06-4.51-.1-6.01-.11-1.65.07-1.73.23-5.8.2l1.78-.11c-4.61,0-2.16.16-6.43.16,1.5.01-1.45.11,1.4.11-1.4.06-4.51.07-6.82.04-.6.02-.13.04-.24.08,2.57.08,4.05-.08,6.16.04l1.78-.12c2.38.04,2.63.14,1.17.19.67,0,1.26-.02,1.75,0,.41.18-2.86-.06-3.69.09h1.68c.73.1-3.93.09-6.11.08-2.46-.06-4.71-.08-4.87-.16l3.3-.04c-1.71-.07-4.21.04-6.13.04-.13-.01-.31-.02-.54-.03.1,0,.15.02.15.02-.41,0-.77-.01-1.08-.03-1.69,0-4.16.05-5.73.02l.19.08.21-.04c1.54,0,3.63.05,2.47.11-3.48.05-4.18-.09-5.01-.16.8-.12,3.4,0,5.16-.04-1.07-.12-3.54-.01-7.13-.09,1.43-.13,4.17,0,4.96-.11-2.9-.02-3.65.07-6.7.04.39-.06,3.36-.06,3.16-.14l-1.95-.04c4.8,0-.84-.16,2.9-.19-1.77-.05-2.47.1-4.98.02.7.05,2.71.16.3.2l-2.72-.04c-1.14-.06,2.84-.13,1.07-.19l-2.85.04c.1.04,1.46.06.6.11-1.64-.04-2.7.15-4.63.2-1.54,0-2.77-.01-3.31-.05-3.89.11-8.81.11-12.4.21,2.44-.08-.1-.13-1.56-.19,2.81-.02,2.83-.13,2.64-.21-1.71.01-2.83.13-1.97.17-2.86-.05-1.97.08-4.49,0-1.63-.04.81-.12.25-.16-3.09,0-.84.14-4.2.12.18-.02.49-.02.22-.04-1.81-.02-3.76.03-4.15.09-1.93-.15-5.43.02-5.06-.13-4.38.04.65.08-.21.13-1.79.07-5.11.01-6.15-.01,1.08,0,2.07-.04,3.12-.02l-.92-.1c-5.45-.07-3.46.24-8.72.15,2.71-.05.9-.08,2.25-.15-.82.03-4.94,0-2.44.08-1.98,0-3.35-.03-4.72-.05-1.76.04-3.66.07-4.68.14-2.77-.01-4.82-.08-6.14-.13-5.82.08-11.2-.05-17.34.03h.45c-4.76-.01,2.11.14-2.84.14.66-.13-2.96-.09-4.56-.15-6.07-.07-10.49.09-16.07,0,.05-.03.41-.06,1.49-.06-4.27-.04-7.71-.01-11.55-.02l.17-.02c-6.16-.1-11.76.02-18.15.05.52-.02.65-.06,1.05-.08-3.22-.03-8.36-.05-10.61.07-3.82-.13-2.53.04-7.44-.08-.28-.02.49-.02.81-.03-2.41-.04-4.13-.03-6.57-.04-5.39.08-6.72.25-12.99.2-.32-.17,3.85-.04,3.99-.18-1.25.03-2.33.07-4.06.02,1.04-.07.22-.04.94-.11-1.32-.05-5.32.18-5.29.16-.07.03.38.05,1.62.05-1.46.11-6.15,0-9.19.05.99,0,4.09.04,2.92.12-4.07-.04-5.42.13-8.27.2-3.75-.08,2.77-.15,2.06-.27-.63-.04-2.13-.14-.56-.19-3.37-.03-5.8.08-8.8.1l.08-.03c-4.2.01-8.68.16-12.2.1l1.87.04c-.69.02-2.81.01-3.97.08.13-.06-2.61-.11-1.49-.16-1.87.18-9.54.11-11.64.28-1.12-.05-.22-.12.12-.16,2.65.02,3.55.05,4.94-.02-2.2,0-3.82-.04-3.48-.09-2.21.11-7.46.16-8.57.27-1.61-.06-3.15-.09-2.58-.18-6.76.06,3.34.29-4.29.29-3.48-.09,3.4-.12-1.4-.16h.89c-3.47-.26-2.43.16-6.36.15-.52-.13,2.74-.09.03-.19-3.59.03-5.17.23-8.76.19l.56-.06c-2.3.01-6.77-.02-9.06,0-.11-.03.23-.02.66-.03-4.24-.05-1.77.07-5.24-.02l-.99.06c1.74.05,5.11.11,7.31.04-2.2.08,3.45.17,2.36.28l.44-.05c5.75.2,13.17.22,20.46.29,4.6-.14,7.83.05,12.78-.04.77-.16.93-.03,5.17-.06-2.25.02-.27.12,1.15.14.83-.04,1.84-.05,2.85-.07.86.05,6.2.18,8.16.07,2.58.05-.6.05-1.17.08,1.05.08,2.1-.06,2.96,0,0,0-.04.02-.31.02,3.95,0,6.31.03,10.42.05.34-.15,4.04-.06,5.87-.11-.59.05,2.31.06,3.48.09l2.2-.11c2.18-.1,3.03.07,5.85.02l-.68-.03c2.06-.05,7.48.05,9.5.13,19.02-.3,29.42.17,49.47.09,1.3-.05-.95-.08.07-.15,2.04-.02,2.5-.01,4.35-.01-1.64-.04-1.37,0-1.17-.03l-2.84.04c-.14-.01.18-.02-.09-.04-.95.01-2.08.04-3.3.04,1.76-.04,2.25-.15,4.65-.11-.18.02-.5.02-1.13.03,1.98,0,2.08-.04,3.57-.02,1.82.03,1.37,0,1.61.04l5.66.06c2.82-.13,6.3,0,7.22,0-.62.1-3.75.03-5.14.13l2.04.07.12-.08,2.91.02-.16.02c.34-.03.7-.06,1.44-.04.13.01.41.03.09.04l2.08-.04c-1.21.08,1.82.02,1.52.12,6.76.05,8.6-.13,14.55,0-.97-.05,1.89-.15,3.72-.13,1.06.02,1.32.05.65.08l2.4-.05c3.01.15,5.94.05,10.34.1l-.23.04c1.63-.05,3.39-.09,5.84-.07l-.45.08c3,.06,2.29-.18,5.6-.12-.02-.09-2.1-.14-2.43-.22.78.09,4.34.11,3.51.04,3.3-.04,2.29,0,2.57.02l1.94-.06c2.32,0,.74.12-.11.17,2.16-.1,4.52-.03,6.97-.01l-.99.04,3.23.02c2.11-.07,5.06-.08,7.78-.04l-1.88.12c1.91.06.98-.04,1.49-.06,3.02-.06,3.66.02,5.26.09,4.83-.13,9.62.2,13.76.02ZM628.93,515.16l-.45-.02c1.01-.02,1.59-.04.45.02ZM602.39,515.13c3.2-.05,2.18,0,2.42.04-3.15-.03-4.9,0-7.68-.03.45.02.53.06.68.08-1.11,0-2.22-.03-2.6-.09,1.37-.12,8.56.08,7.18,0ZM662.14,514.53c-.11,0-.24.02-.38.03h-.02l.39-.03ZM646.32,514.64c-.23-.03-.62-.04-1.09-.05.29.03.58.06,1.09.05ZM614.83,514.49c-.73-.05-2.39-.04-3.59-.02.56,0,1.58.02,3.59.02ZM416.18,514.54c.95-.02,2.75-.07,1.11-.11-.79.04-2.31-.03-2.97.03-.09,0-.11,0-.16,0,.95.04,1.74.08,2.02.08ZM322.8,514.95c.17-.05.87-.1.42-.14.08,0,.18,0,.27,0-.24-.02-.44-.03-.25-.04-.76,0-1.56-.02-2.09,0-.26.16-1.86.19,1.66.19Z"/>
      <path class="cls-2" d="M353.99,514.29c-.36,0-.64,0-.87,0,.24,0,.51,0,.87,0Z"/>
      <path class="cls-2" d="M321.3,514.77c-.07.01.83.03,1.92.04-.22-.02-.76-.04-1.92-.04Z"/>
      <path class="cls-2" d="M713.62,515.08l-.93.02,1.85.05c3.09-.05,3.24-.12,4-.2-2.77.08-4.46.04-8.02.06l3.09.08Z"/>
      <path class="cls-2" d="M712.05,514.54c-.31-.02-1.08-.08-1.55-.08l-.46.05,2.01.03Z"/>
      <path class="cls-2" d="M675.47,514.3l2.93.04c.93-.04-2.47-.12-2.93-.04Z"/>
      <path class="cls-2" d="M688.48,515.15l1.54-.05c-1.38-.04-3.24-.04-3.55.02,1.85-.03.46.03,2.01.03Z"/>
      <path class="cls-2" d="M667.59,514.29c-.91.1-2.93-.04-3.54.05.77-.03,3.39.05,3.54-.05Z"/>
      <path class="cls-2" d="M669.65,515.21c.93.09,2.47.01,4.33.03-1.55,0-3.71-.1-4.33-.03Z"/>
      <path class="cls-2" d="M651.87,514.57c.15-.07,1.39-.06,2.78-.05-.46.02-.77.05-1.39.06,2.31-.05,2.47-.04,4.32-.08-1.85-.05-4.63-.08-4.34-.17-1.37.06-3.08.16-1.37.22Z"/>
      <path class="cls-2" d="M665.19,515.22c1.55.03,2.47.09,4.32.09-.32-.05-.94-.12-3.1-.11l.77-.08c-2.01-.06.79.11-2,.1Z"/>
      <path class="cls-2" d="M643.37,514.38l.93.04c2.16-.06,4.94-.03,6.16-.13-2.61,0-5.85.05-7.09.1Z"/>
      <path class="cls-2" d="M657.61,515.07l-.29.11c2.16.02-.16-.04.62-.06.62.02,1.54.03,2,0-2.46.02-.16-.09-2.32-.05Z"/>
      <path class="cls-2" d="M650.52,515.2l-2.77.05,2.16.12c3.24-.04.15-.07.6-.17Z"/>
      <path class="cls-2" d="M647.12,515.12l-.31-.02-4.15.17c2.47-.07,2.62-.06,4.46-.14Z"/>
      <path class="cls-2" d="M596.8,514.39c-.47.05,1.97.11.93.05.47-.04-2.78-.1-.93-.05Z"/>
      <path class="cls-2" d="M606.72,515.29c-1.18-.04-5.06.03-6.75.07,2.02-.02,7.03,0,6.75-.07Z"/>
      <path class="cls-2" d="M599.28,515.37c.14,0,.39,0,.69-.01-.31,0-.53,0-.69.01Z"/>
      <path class="cls-2" d="M527.95,515.62c-.18,0-.36,0-.52.01.18,0,.33,0,.52-.01Z"/>
      <path class="cls-2" d="M529.65,515.59c1.15.02,3.44-.01,3.83-.07-1.81.02-3.41.04-5.53.09.8,0,1.77.03,1.7-.03Z"/>
      <path class="cls-2" d="M513.27,515.57c.85-.03,2.02-.01,1.73-.06-.48-.02-2.29.03-1.73.06Z"/>
      <path class="cls-2" d="M402.93,514.16c-1.58-.03-2.5,0-2.08.06,1.77,0,.8-.04,2.08-.06Z"/>
      <polygon class="cls-2" points="398.83 514.24 398.62 514.2 397.58 514.15 398.83 514.24"/>
      <path class="cls-2" d="M387.97,514.14c.08-.01.36-.02.65-.03-.61,0-1.14.02-.65.03Z"/>
      <path class="cls-2" d="M388.93,514.1c-.1,0-.21,0-.31,0,.1,0,.21,0,.31,0Z"/>
      <path class="cls-2" d="M389.65,514.12l.12-.04c-.18,0-.51.01-.84.02.29,0,.6,0,.71.02Z"/>
      <path class="cls-2" d="M384.71,514.12l2.07.11c2.15-.05-2.45-.05-.33-.17l-1.74.06Z"/>
      <path class="cls-2" d="M377.49,514.15c-1.98-.03-4.83.13-5.95,0-5.6.07,1.29.21-5.12.26,6.06.07,3.08-.24,8.46-.17-2.6-.08,1.74-.06,2.61-.09Z"/>
      <path class="cls-2" d="M378.45,514.37c.32-.06-2.19-.07-2.97-.03.73,0,1.99.1,2.97.03Z"/>
      <polygon class="cls-2" points="366.54 514.21 364.83 514.16 364.38 514.2 366.54 514.21"/>
      <path class="cls-2" d="M360.05,514.18l1.67-.07c-.55.03-3.05.02-1.67.07Z"/>
      <path class="cls-2" d="M351,514.09c-1.57-.02-2.99.15.32.11h-.75c.19-.03-1.59-.09.43-.11Z"/>
      <path class="cls-2" d="M330.07,514.36c1.08,0,2.36-.02,2.13-.05l-2.96.03.83.02Z"/>
      <path class="cls-2" d="M330.51,514.77c.99.1,2.78,0,4.74.03-2.23-.02-1.97-.03-4.74-.03Z"/>
      <path class="cls-2" d="M326.69,514.21c.8-.04,2.04-.02,2.78,0-.36-.06-2.4-.04-2.78,0Z"/>
      <path class="cls-2" d="M321.97,514.25c-.97-.04.21-.06-.52-.09-2.08-.05-4.26-.04-5.43.02.55.04,1.29.16.44.22,3.31-.04,5.01-.23,6.62-.08l2.77-.18c-2.65-.03-2.04.13-3.87.12Z"/>
      <path class="cls-2" d="M328.67,514.59l-1.77-.06c.36.06-.99.07-1.93.09.46.13,2.7-.02,3.71-.03Z"/>
      <polygon class="cls-2" points="303.6 514.33 299.83 514.36 301.06 514.37 303.6 514.33"/>
      <polygon class="cls-2" points="301.18 514.29 301.08 514.25 298.21 514.32 301.18 514.29"/>
      <polygon class="cls-2" points="297.24 514.24 297.68 514.25 299.9 514.21 297.24 514.24"/>
      <path class="cls-2" d="M289.39,514.21l.69.06c.95-.01,2.86.05,2.68-.03-.83.03-2.81.02-3.37-.03Z"/>
      <path class="cls-2" d="M263.39,515.63c.68-.04.27-.07-.14-.1l-1.08.09c.32,0,.95-.01,1.22,0Z"/>
      <path class="cls-2" d="M258.84,515.47l-2.79.11c3.22.02,3.67-.07,6.47-.09-1.19-.03-2.85.04-4.35.01l.67-.04Z"/>
      <path class="cls-2" d="M202.89,515.39c.25-.07-.38-.06,1.7-.1-2.85.04-5.29.03-8.55.04.55.04-1.88.12-.63.1l3.63-.04-.55.05c2.55.05,1.67-.08,4.39-.04Z"/>
      <path class="cls-2" d="M56.69,514.65c.34-.03-.1-.06-.54-.09-2.17.04.98.09.54.09Z"/>
    </g>
  </g>
</svg>